<svg id="v3_-_verdana" data-name="v3 - verdana" xmlns="http://www.w3.org/2000/svg" xmlns:xlink="http://www.w3.org/1999/xlink" width="229" height="59" viewBox="0 0 229 59">
  <defs>
    <style>
      .cls-1 {
        fill: #650394;
      }

      .cls-2 {
        filter: url(#filter);
      }

      .cls-3 {
        fill: #650093;
        fill-rule: evenodd;
      }
    </style>
    <filter id="filter" filterUnits="userSpaceOnUse">
      <feFlood result="flood" flood-color="#fff"/>
      <feComposite result="composite" operator="in" in2="SourceGraphic"/>
      <feBlend result="blend" in2="SourceGraphic"/>
    </filter>
  </defs>
  <rect class="cls-1" y="-1" width="229" height="61"/>
  <g id="Group_1_copy" data-name="Group 1 copy" class="cls-2">
    <path id="sma" class="cls-3" d="M35.2,29.753a7.045,7.045,0,0,0-3.691-2.048q-1.125-.281-2.241-0.466t-2.083-.378a6.457,6.457,0,0,1-2.232-.738,1.276,1.276,0,0,1-.475-1.072,1.348,1.348,0,0,1,1.046-1.2,6.9,6.9,0,0,1,2.575-.422,11.367,11.367,0,0,1,3.648.606,12.888,12.888,0,0,1,3.208,1.573H35.5V20.621a17.181,17.181,0,0,0-3.173-.958,19.642,19.642,0,0,0-4.245-.448,12.665,12.665,0,0,0-7.374,1.89,5.614,5.614,0,0,0-2.7,4.737,5.413,5.413,0,0,0,1.3,3.7,7.754,7.754,0,0,0,3.99,2.188,20.5,20.5,0,0,0,2.189.448q1.2,0.185,1.907.343a6.887,6.887,0,0,1,2,.624,1.136,1.136,0,0,1,.527,1.046,1.315,1.315,0,0,1-.9,1.222,6.948,6.948,0,0,1-2.76.413,11.78,11.78,0,0,1-2.672-.29,14.541,14.541,0,0,1-2.232-.694,11.143,11.143,0,0,1-1.767-.852q-0.624-.4-1.1-0.73H17.92v5.2a18.2,18.2,0,0,0,3.445,1.09,21.422,21.422,0,0,0,4.781.492,13.147,13.147,0,0,0,7.506-1.872,5.721,5.721,0,0,0,2.742-4.931A5.181,5.181,0,0,0,35.2,29.753ZM59.025,24.6a4.531,4.531,0,0,1,1.547-.272,4.615,4.615,0,0,1,1.828.29,1.848,1.848,0,0,1,.949.923,4.258,4.258,0,0,1,.378,1.635q0.061,1,.062,2.461V39.5h6.346V26.65a8.194,8.194,0,0,0-1.659-5.52,6.07,6.07,0,0,0-4.853-1.916,7.689,7.689,0,0,0-3.511.914,19.649,19.649,0,0,0-3.686,2.514,5.943,5.943,0,0,0-2.335-2.558,6.7,6.7,0,0,0-3.441-.87,7.49,7.49,0,0,0-3.3.721,17.346,17.346,0,0,0-3.125,2V19.76H37.878V39.5h6.346V25.508a13.257,13.257,0,0,1,1.582-.8,4.54,4.54,0,0,1,1.811-.378,4.492,4.492,0,0,1,1.8.29,1.933,1.933,0,0,1,.958.923,4.378,4.378,0,0,1,.387,1.643q0.07,1.011.07,2.452V39.5h6.346V25.508A11.864,11.864,0,0,1,59.025,24.6Zm24.5,10.75a5.208,5.208,0,0,1-1.925.385,6.735,6.735,0,0,1-1.758-.166,2.561,2.561,0,0,1-.967-0.517,1.5,1.5,0,0,1-.527-0.736,3.888,3.888,0,0,1-.105-1,2.185,2.185,0,0,1,.5-1.5,3.125,3.125,0,0,1,1.45-.867,13.382,13.382,0,0,1,2.268-.429q1.494-.184,2.777-0.289v4.1A6.012,6.012,0,0,1,83.527,35.353ZM85.241,39.5h6.275V26.07a5.9,5.9,0,0,0-2.4-5.212q-2.4-1.661-7.8-1.661a28.715,28.715,0,0,0-4.526.36q-2.259.36-3.261,0.624v4.764h0.58q0.773-.3,2.549-0.852A11.237,11.237,0,0,1,80,23.539a9.662,9.662,0,0,1,3.938.624,2.275,2.275,0,0,1,1.336,2.259v0.105q-2.795.158-5.4,0.492a15.5,15.5,0,0,0-4.359,1.125,6.485,6.485,0,0,0-2.742,2.162,5.994,5.994,0,0,0-.967,3.533,5.765,5.765,0,0,0,1.9,4.447,6.709,6.709,0,0,0,4.711,1.74,11.139,11.139,0,0,0,2.2-.2,8.991,8.991,0,0,0,1.934-.624,9.222,9.222,0,0,0,1.424-.861q0.756-.545,1.266-0.932V39.5Zm22.806-19.99c-0.211-.023-0.456-0.041-0.737-0.053s-0.532-.018-0.754-0.018a8.034,8.034,0,0,0-2.842.589,13.187,13.187,0,0,0-3.63,2.382v-2.9H93.738V39.25h6.346V26.031a13.541,13.541,0,0,1,2.227-.6,14.409,14.409,0,0,1,2.386-.176q0.6,0,1.491.07a5.679,5.679,0,0,1,1.3.211h0.561V19.51Zm16.312,15.24h-0.525a5.367,5.367,0,0,1-1.114.387,5.3,5.3,0,0,1-1.287.211,3.677,3.677,0,0,1-1.815-.361,1.951,1.951,0,0,1-.867-0.977,3.724,3.724,0,0,1-.28-1.391q-0.018-.774-0.018-1.813V23.8h5.906V19.51h-5.906V13.867h-6.346V19.51h-2.6V23.8h2.6v9.228q0,3.621,1.8,5.115t5.493,1.494a22.156,22.156,0,0,0,2.8-.149,17.949,17.949,0,0,0,2.162-.412V34.75Zm19.231,0.884h-9.624q0.561-.4,1.885-1.417t2.632-2.223a15.763,15.763,0,0,0,3.1-3.769,7.82,7.82,0,0,0,1.015-3.855,5.772,5.772,0,0,0-2.115-4.783,9.657,9.657,0,0,0-6.143-1.69,18.236,18.236,0,0,0-3.992.446,17.569,17.569,0,0,0-3.014.892V24h0.46a12.831,12.831,0,0,1,2.712-1.4,7.937,7.937,0,0,1,2.784-.547,4.088,4.088,0,0,1,2.712.8,2.807,2.807,0,0,1,.942,2.266,4.869,4.869,0,0,1-.734,2.474,14.811,14.811,0,0,1-2.474,2.935q-1.165,1.137-3.1,2.7t-3.862,2.963v3.539H143.59v-4.1Zm20.954-13.462a6.77,6.77,0,0,0-5.732-2.707,8.081,8.081,0,0,0-3.5.721,15.35,15.35,0,0,0-2.976,1.881V20.01h-6.346V46.992h6.346V38.766a13.774,13.774,0,0,0,2.405,1.011,9.875,9.875,0,0,0,2.862.36,8.4,8.4,0,0,0,3.423-.7,8.563,8.563,0,0,0,2.862-2.074,9.8,9.8,0,0,0,1.958-3.3,12.671,12.671,0,0,0,.746-4.447A12.072,12.072,0,0,0,164.544,22.172Zm-5.7,11.982a4.6,4.6,0,0,1-3.736,1.465q-0.7,0-1.421-.07a5.055,5.055,0,0,1-1.35-.316V25.317a7.711,7.711,0,0,1,1.806-.781,6.662,6.662,0,0,1,1.842-.272,3.642,3.642,0,0,1,3.1,1.3,6.994,6.994,0,0,1,.982,4.177A6.752,6.752,0,0,1,158.841,34.154ZM179.7,35.6a5.207,5.207,0,0,1-1.924.385,6.736,6.736,0,0,1-1.758-.166,2.559,2.559,0,0,1-.967-0.517,1.5,1.5,0,0,1-.527-0.736,3.854,3.854,0,0,1-.106-1,2.185,2.185,0,0,1,.5-1.5,3.129,3.129,0,0,1,1.45-.867,13.4,13.4,0,0,1,2.268-.429q1.494-.184,2.777-0.289v4.1A6,6,0,0,1,179.7,35.6Zm1.714,4.147h6.276V26.32a5.9,5.9,0,0,0-2.4-5.212q-2.4-1.661-7.8-1.661a28.719,28.719,0,0,0-4.526.36q-2.259.36-3.261,0.624V25.2h0.58q0.774-.3,2.549-0.852a11.241,11.241,0,0,1,3.34-.554,9.66,9.66,0,0,1,3.937.624,2.274,2.274,0,0,1,1.336,2.259v0.105q-2.794.158-5.4,0.492a15.49,15.49,0,0,0-4.359,1.125,6.49,6.49,0,0,0-2.743,2.162,6,6,0,0,0-.966,3.533,5.763,5.763,0,0,0,1.9,4.447,6.71,6.71,0,0,0,4.711,1.74,11.135,11.135,0,0,0,2.2-.2,8.987,8.987,0,0,0,1.934-.624,9.233,9.233,0,0,0,1.424-.861q0.755-.545,1.265-0.932V39.75Zm13.579-19.74h-6.646L196.024,39.6l-3.139,7.393h6.869L210.723,20.01h-6.508l-4.5,12.761Z"/>
  </g>
</svg>
