<svg id="v3_-_verdana" data-name="v3 - verdana" xmlns="http://www.w3.org/2000/svg" width="193" height="34" viewBox="0 0 193 34">
  <defs>
    <style>
      .cls-1 {
        fill: #650093;
        fill-rule: evenodd;
      }
    </style>
  </defs>
  <g id="Group_1_copy" data-name="Group 1 copy">
    <path id="sma" class="cls-1" d="M17.2,16.753a7.045,7.045,0,0,0-3.691-2.048q-1.125-.281-2.241-0.466t-2.083-.378a6.457,6.457,0,0,1-2.232-.738,1.276,1.276,0,0,1-.475-1.072,1.348,1.348,0,0,1,1.046-1.2,6.9,6.9,0,0,1,2.575-.422,11.366,11.366,0,0,1,3.648.606,12.888,12.888,0,0,1,3.208,1.573H17.5V7.621a17.187,17.187,0,0,0-3.173-.958,19.641,19.641,0,0,0-4.245-.448A12.665,12.665,0,0,0,2.706,8.1a5.615,5.615,0,0,0-2.7,4.737,5.413,5.413,0,0,0,1.3,3.7A7.754,7.754,0,0,0,5.3,18.731a20.5,20.5,0,0,0,2.188.448q1.2,0.185,1.907.343a6.887,6.887,0,0,1,2,.624,1.136,1.136,0,0,1,.527,1.046,1.315,1.315,0,0,1-.9,1.222,6.948,6.948,0,0,1-2.76.413,11.779,11.779,0,0,1-2.672-.29,14.539,14.539,0,0,1-2.232-.694A11.144,11.144,0,0,1,1.6,20.989q-0.624-.4-1.1-0.73H-0.08v5.2a18.2,18.2,0,0,0,3.445,1.09,21.421,21.421,0,0,0,4.781.492,13.148,13.148,0,0,0,7.506-1.872,5.721,5.721,0,0,0,2.742-4.931A5.181,5.181,0,0,0,17.2,16.753ZM41.025,11.6a4.531,4.531,0,0,1,1.547-.272,4.614,4.614,0,0,1,1.828.29,1.848,1.848,0,0,1,.949.923,4.256,4.256,0,0,1,.378,1.635q0.061,1,.062,2.461V26.5h6.346V13.65a8.194,8.194,0,0,0-1.659-5.52,6.07,6.07,0,0,0-4.853-1.916,7.688,7.688,0,0,0-3.511.914,19.643,19.643,0,0,0-3.686,2.514A5.944,5.944,0,0,0,36.09,7.085a6.7,6.7,0,0,0-3.441-.87,7.489,7.489,0,0,0-3.3.721,17.344,17.344,0,0,0-3.125,2V6.76H19.878V26.5h6.346V12.508a13.251,13.251,0,0,1,1.582-.8,4.539,4.539,0,0,1,1.81-.378,4.492,4.492,0,0,1,1.8.29,1.933,1.933,0,0,1,.958.923,4.378,4.378,0,0,1,.387,1.644q0.07,1.011.07,2.452V26.5h6.346V12.508A11.864,11.864,0,0,1,41.025,11.6Zm24.5,10.75a5.209,5.209,0,0,1-1.925.385,6.735,6.735,0,0,1-1.758-.166,2.561,2.561,0,0,1-.967-0.517,1.5,1.5,0,0,1-.527-0.736,3.888,3.888,0,0,1-.105-1,2.185,2.185,0,0,1,.5-1.5,3.125,3.125,0,0,1,1.45-.867,13.382,13.382,0,0,1,2.268-.429q1.494-.184,2.777-0.289v4.1A6.012,6.012,0,0,1,65.527,22.353ZM67.241,26.5h6.275V13.07a5.9,5.9,0,0,0-2.4-5.212q-2.4-1.661-7.8-1.661a28.709,28.709,0,0,0-4.526.36q-2.259.36-3.261,0.624v4.764h0.58q0.773-.3,2.549-0.852A11.237,11.237,0,0,1,62,10.539a9.664,9.664,0,0,1,3.938.624,2.275,2.275,0,0,1,1.336,2.259v0.105q-2.795.158-5.4,0.492a15.5,15.5,0,0,0-4.359,1.125,6.486,6.486,0,0,0-2.742,2.162,5.994,5.994,0,0,0-.967,3.533,5.765,5.765,0,0,0,1.9,4.447,6.709,6.709,0,0,0,4.711,1.74,11.139,11.139,0,0,0,2.2-.2,8.989,8.989,0,0,0,1.934-.624,9.222,9.222,0,0,0,1.424-.861q0.756-.545,1.266-0.932V26.5ZM90.047,6.51q-0.316-.035-0.737-0.053t-0.754-.018a8.03,8.03,0,0,0-2.842.589,13.181,13.181,0,0,0-3.63,2.382V6.51H75.738V26.25h6.346V13.031a13.514,13.514,0,0,1,2.227-.6,14.4,14.4,0,0,1,2.385-.176q0.6,0,1.491.07a5.677,5.677,0,0,1,1.3.211h0.561V6.51Zm16.312,15.24h-0.525a5.367,5.367,0,0,1-1.114.387,5.3,5.3,0,0,1-1.287.211,3.677,3.677,0,0,1-1.815-.361,1.951,1.951,0,0,1-.867-0.977,3.724,3.724,0,0,1-.28-1.391q-0.018-.774-0.018-1.813V10.8h5.906V6.51h-5.906V0.867H94.107V6.51h-2.6V10.8h2.6v9.229q0,3.621,1.8,5.115t5.493,1.494a22.156,22.156,0,0,0,2.8-.149,17.949,17.949,0,0,0,2.162-.412V21.75Zm19.231,0.884h-9.624q0.561-.4,1.885-1.417t2.632-2.223a15.763,15.763,0,0,0,3.1-3.769,7.82,7.82,0,0,0,1.015-3.856,5.772,5.772,0,0,0-2.115-4.783A9.657,9.657,0,0,0,116.34,4.9a18.232,18.232,0,0,0-3.992.446,17.572,17.572,0,0,0-3.014.892V11h0.46a12.831,12.831,0,0,1,2.712-1.4,7.937,7.937,0,0,1,2.784-.547,4.088,4.088,0,0,1,2.712.8,2.807,2.807,0,0,1,.942,2.266,4.869,4.869,0,0,1-.734,2.474,14.811,14.811,0,0,1-2.474,2.935q-1.165,1.137-3.1,2.7t-3.862,2.964v3.539H125.59v-4.1ZM146.544,9.172a6.77,6.77,0,0,0-5.732-2.707,8.08,8.08,0,0,0-3.5.721,15.346,15.346,0,0,0-2.976,1.881V7.01h-6.346V33.992h6.346V25.766a13.774,13.774,0,0,0,2.405,1.011,9.875,9.875,0,0,0,2.862.36,8.4,8.4,0,0,0,3.423-.7,8.563,8.563,0,0,0,2.862-2.074,9.8,9.8,0,0,0,1.958-3.3,12.671,12.671,0,0,0,.746-4.447A12.073,12.073,0,0,0,146.544,9.172Zm-5.7,11.982a4.6,4.6,0,0,1-3.736,1.465q-0.7,0-1.421-.07a5.055,5.055,0,0,1-1.35-.316V12.317a7.711,7.711,0,0,1,1.806-.781,6.662,6.662,0,0,1,1.842-.272,3.642,3.642,0,0,1,3.1,1.3,6.994,6.994,0,0,1,.982,4.177A6.752,6.752,0,0,1,140.841,21.154ZM161.7,22.6a5.207,5.207,0,0,1-1.924.385,6.736,6.736,0,0,1-1.758-.166,2.559,2.559,0,0,1-.967-0.517,1.5,1.5,0,0,1-.527-0.736,3.854,3.854,0,0,1-.106-1,2.185,2.185,0,0,1,.5-1.5,3.129,3.129,0,0,1,1.45-.867,13.4,13.4,0,0,1,2.268-.429q1.494-.184,2.777-0.289v4.1A6,6,0,0,1,161.7,22.6Zm1.714,4.147h6.276V13.32a5.9,5.9,0,0,0-2.4-5.212q-2.4-1.661-7.8-1.661a28.713,28.713,0,0,0-4.526.36q-2.259.36-3.261,0.624V12.2h0.58q0.774-.3,2.549-0.852a11.241,11.241,0,0,1,3.34-.554,9.66,9.66,0,0,1,3.937.624,2.274,2.274,0,0,1,1.336,2.259v0.105q-2.794.158-5.4,0.492a15.49,15.49,0,0,0-4.359,1.125,6.49,6.49,0,0,0-2.743,2.162,6,6,0,0,0-.966,3.533,5.763,5.763,0,0,0,1.9,4.447,6.71,6.71,0,0,0,4.711,1.74,11.135,11.135,0,0,0,2.2-.2,8.987,8.987,0,0,0,1.934-.624,9.233,9.233,0,0,0,1.424-.861q0.755-.545,1.265-0.932V26.75ZM176.992,7.01h-6.646L178.024,26.6l-3.139,7.393h6.869L192.723,7.01h-6.508l-4.5,12.761Z"/>
  </g>
</svg>
